<?xml version="1.0" standalone="no"?>
<!DOCTYPE svg PUBLIC "-//W3C//DTD SVG 20010904//EN" "http://www.w3.org/TR/2001/REC-SVG-20010904/DTD/svg10.dtd">
<!-- Created using Krita: https://krita.org -->
<svg xmlns="http://www.w3.org/2000/svg" 
    xmlns:xlink="http://www.w3.org/1999/xlink"
    xmlns:krita="http://krita.org/namespaces/svg/krita"
    xmlns:sodipodi="http://sodipodi.sourceforge.net/DTD/sodipodi-0.dtd"
    width="468pt"
    height="383.76pt"
    viewBox="0 0 468 383.76">
<defs/>
<g id="stethoscope" transform="matrix(0.72 0 0 0.72 0 0)" fill="none">
  <g id="group0" fill="none">
   <path id="shape0" transform="translate(334, 124)" fill="none" stroke="#219ca4" stroke-width="4" stroke-linecap="round" stroke-linejoin="miter" stroke-miterlimit="10" d="M32.4269 27.652C30.985 27.881 29.5064 28 28 28C12.536 28 0 15.464 0 0" sodipodi:nodetypes="ccc"/>
   <path id="shape1" transform="translate(372.3300782, 149.0494995)" fill="none" stroke="#219ca4" stroke-width="4" stroke-linecap="round" stroke-linejoin="miter" stroke-miterlimit="10" d="M2.19452 0C1.47992 0.358002 0.747925 0.686295 0 0.983307" sodipodi:nodetypes="cc"/>
   <path id="shape2" transform="translate(381.5478821, 124)" fill="none" stroke="#219ca4" stroke-width="4" stroke-linecap="round" stroke-linejoin="miter" stroke-miterlimit="10" d="M8.45212 0C8.45212 7.8589 5.21442 14.9616 0 20.0469" sodipodi:nodetypes="cc"/>
   <path id="shape3" transform="translate(340, 102)" fill="none" stroke="#219ca4" stroke-width="4" stroke-linecap="round" stroke-linejoin="miter" stroke-miterlimit="10" d="M3 14L3 14C1.35001 14 0 12.65 0 11L0 3C0 1.35 1.35001 0 3 0L3 0C4.64999 0 6 1.35 6 3L6 11C6 12.65 4.64999 14 3 14Z" sodipodi:nodetypes="ccccccccc"/>
   <path id="shape4" transform="translate(378, 102)" fill="none" stroke="#219ca4" stroke-width="4" stroke-linecap="round" stroke-linejoin="miter" stroke-miterlimit="10" d="M3 14L3 14C1.35001 14 0 12.65 0 11L0 3C0 1.35 1.35001 0 3 0L3 0C4.64999 0 6 1.35 6 3L6 11C6 12.65 4.64999 14 3 14Z" sodipodi:nodetypes="ccccccccc"/>
   <circle id="shape5" transform="translate(402, 128)" r="11" cx="11" cy="11" fill="none" stroke="#219ca4" stroke-width="4" stroke-linecap="round" stroke-linejoin="miter" stroke-miterlimit="10"/>
   <circle id="shape6" transform="translate(411, 137)" r="2" cx="2" cy="2" fill="none" stroke="#219ca4" stroke-width="4" stroke-linecap="round" stroke-linejoin="miter" stroke-miterlimit="10"/>
   <path id="shape7" transform="translate(362, 150)" fill="none" stroke="#219ca4" stroke-width="4" stroke-linecap="round" stroke-linejoin="miter" stroke-miterlimit="10" d="M0 12L0 36C0 40.4183 3.5817 44 8 44C12.4183 44 16 40.4183 16 36L16 28C16 22.4772 20.4772 18 26 18C31.5228 18 36 22.4772 36 28L36 36C36 40.4183 39.5817 44 44 44C48.4183 44 52 40.4183 52 36L52 0" sodipodi:nodetypes="ccccccccccc"/>
   <path id="shape8" transform="translate(334, 109)" fill="none" stroke="#219ca4" stroke-width="4" stroke-linecap="round" stroke-linejoin="miter" stroke-miterlimit="10" d="M50 0L52 0C54.2091 0 56 1.7909 56 4L56 25C56 40.464 43.464 53 28 53C12.536 53 0 40.464 0 25L0 4C0 1.7909 1.79089 0 4 0L6 0" sodipodi:nodetypes="ccccccccc"/>
  </g>
 </g>
</svg>
