<svg version="1.1" xmlns="http://www.w3.org/2000/svg" xmlns:xlink="http://www.w3.org/1999/xlink" x="0px" y="0px" width="650px" height="533px" viewBox="0 0 650 533" enable-background="new 0 0 650 533" xml:space="preserve">
    <g id="stethoscope">
        <g>
            <path fill="none" stroke="#454545" stroke-width="4" stroke-linecap="round" stroke-miterlimit="10" d="M366.4268799,151.6519928C364.9849854,151.8809967,363.5063782,152,362,152c-15.4639893,0-28-12.5359955-28-28"/>
            <path fill="none" stroke="#454545" stroke-width="4" stroke-linecap="round" stroke-miterlimit="10" d="M374.5245972,149.0494995c-0.7145996,0.3580017-1.4465942,0.6862946-2.194519,0.9833069"/>
            <path fill="none" stroke="#454545" stroke-width="4" stroke-linecap="round" stroke-miterlimit="10" d="M390,124c0,7.858902-3.2377014,14.9615936-8.4521179,20.0469055"/>
            <path fill="none" stroke="#454545" stroke-width="4" stroke-linecap="round" stroke-miterlimit="10" d="M343,116L343,116c-1.6499939,0-3-1.3499985-3-3v-8c0-1.6500015,1.3500061-3,3-3l0,0c1.6499939,0,3,1.3499985,3,3v8C346,114.6500015,344.6499939,116,343,116z"/>
            <path fill="none" stroke="#454545" stroke-width="4" stroke-linecap="round" stroke-miterlimit="10" d="M381,116L381,116c-1.6499939,0-3-1.3499985-3-3v-8c0-1.6500015,1.3500061-3,3-3l0,0c1.6499939,0,3,1.3499985,3,3v8C384,114.6500015,382.6499939,116,381,116z"/>
            <circle fill="none" stroke="#454545" stroke-width="4" stroke-linecap="round" stroke-miterlimit="10" cx="413" cy="139" r="11"/>
            <circle fill="none" stroke="#454545" stroke-width="4" stroke-linecap="round" stroke-miterlimit="10" cx="413" cy="139" r="2"/>
            <path fill="none" stroke="#454545" stroke-width="4" stroke-linecap="round" stroke-miterlimit="10" d="M362,162v24c0,4.4183044,3.5816956,8,8,8s8-3.5816956,8-8v-8c0-5.5227966,4.4772034-10,10-10s10,4.4772034,10,10v8c0,4.4183044,3.5816956,8,8,8s8-3.5816956,8-8v-36"/>
            <path fill="none" stroke="#454545" stroke-width="4" stroke-linecap="round" stroke-miterlimit="10" d="M384,109h2c2.2091064,0,4,1.7909012,4,4v21c0,15.4640045-12.5360107,28-28,28s-28-12.5359955-28-28v-21c0-2.2090988,1.7908936-4,4-4h2"/>
        </g>
    </g>
</svg>
